# xmcd CD database file
#
# Track frame offsets:
#	150
#	18605
#	44042
#	65022
#	89590
#	112585
#	130567
#	152137
#	175297
#
# Disc length: 2694 seconds
#
# Revision: 2
# Processed by: cddbd v1.5.2PL0 Copyright (c) Steve Scherf et al.
# Submitted via: CDex 1.51
#
DISCID=750a8409
DTITLE=Junior Wells - On Tap
DYEAR=1991
DGENRE=Blues
TTITLE0=What My Mama Told Me
TTITLE1=So Long
TTITLE2=Key To The Highway
TTITLE3=You Gotta Love Her With A Feeling
TTITLE4=The Train I Ride
TTITLE5=Watch Me Move
TTITLE6=Someday Baby
TTITLE7=Junior's Thing
TTITLE8=Goin' Down Slow
EXTD=YEAR: 1991
EXTT0=
EXTT1=
EXTT2=
EXTT3=
EXTT4=
EXTT5=
EXTT6=
EXTT7=
EXTT8=
PLAYORDER=
